<?xml version="1.0" encoding="UTF-8" standalone="no"?>
<!DOCTYPE svg PUBLIC "-//W3C//DTD SVG 1.1//EN" "http://www.w3.org/Graphics/SVG/1.1/DTD/svg11.dtd">
<svg width="100%" height="100%" viewBox="0 0 1000 1000" version="1.1" xmlns="http://www.w3.org/2000/svg" xmlnsXlink="http://www.w3.org/1999/xlink" xmlSpace="preserve" xmlnsSerif="http://www.serif.com/" style="fill-rule:evenodd;clip-rule:evenodd;stroke-linejoin:round;stroke-miterlimit:2;">
    <g transform="matrix(1,0,0,1,-4200,0)">
        <rect id="coins" x="4200" y="0" width="1000" height="1000" style="fill:none;"/>
        <g id="coins1" serifId="coins">
            <g transform="matrix(20.2614,0,0,20.2614,-109458,-7777.27)">
                <g>
                    <g transform="matrix(1,0,0,1,1982.71,0.315052)">
                        <path d="M3644.16,409.629L3646.39,409.629L3646.39,411.741L3639.1,411.741L3639.1,409.629L3641.44,409.629L3641.44,405.119C3640.55,405.513 3639.86,405.745 3639.36,405.814L3639.36,403.681C3640.7,403.389 3641.62,402.865 3642.1,402.11L3644.16,402.11L3644.16,409.629Z" style="fill-rule:nonzero;"/>
                    </g>
                    <g transform="matrix(1,0,0,1,1984.38,0)">
                        <path d="M3652.94,411.725C3651.13,416.515 3646.5,419.924 3641.08,419.924C3634.08,419.924 3628.39,414.241 3628.39,407.241C3628.39,400.241 3634.08,394.557 3641.08,394.557C3643.16,394.557 3645.13,395.061 3646.86,395.952C3646.48,396.968 3646.22,398.047 3646.11,399.168C3644.65,398.256 3642.92,397.728 3641.08,397.728C3635.83,397.728 3631.56,401.991 3631.56,407.241C3631.56,412.491 3635.83,416.753 3641.08,416.753C3645.42,416.753 3649.09,413.832 3650.23,409.847C3651.04,410.585 3651.96,411.218 3652.94,411.725Z" style="fill:rgb(5,4,0);"/>
                    </g>
                </g>
                <g>
                    <g transform="matrix(1,0,0,1,2000.36,-6.48877)">
                        <path d="M3644.16,409.629L3646.39,409.629L3646.39,411.741L3639.1,411.741L3639.1,409.629L3641.44,409.629L3641.44,405.119C3640.55,405.513 3639.86,405.745 3639.36,405.814L3639.36,403.681C3640.7,403.389 3641.62,402.865 3642.1,402.11L3644.16,402.11L3644.16,409.629Z" style="fill-rule:nonzero;"/>
                    </g>
                    <g transform="matrix(1,0,0,1,2018.29,-8.17501)">
                        <path d="M3624.82,395.929C3631.82,395.929 3637.5,401.612 3637.5,408.612C3637.5,415.612 3631.82,421.295 3624.82,421.295C3617.82,421.295 3612.14,415.612 3612.14,408.612C3612.14,401.612 3617.82,395.929 3624.82,395.929ZM3624.82,399.099C3630.07,399.099 3634.33,403.362 3634.33,408.612C3634.33,413.862 3630.07,418.125 3624.82,418.125C3619.57,418.125 3615.31,413.862 3615.31,408.612C3615.31,403.362 3619.57,399.099 3624.82,399.099Z" style="fill:rgb(5,4,0);"/>
                    </g>
                </g>
                <g>
                    <g transform="matrix(1,0,0,1,1992.98,9.68636)">
                        <path d="M3644.16,409.629L3646.39,409.629L3646.39,411.741L3639.1,411.741L3639.1,409.629L3641.44,409.629L3641.44,405.119C3640.55,405.513 3639.86,405.745 3639.36,405.814L3639.72,404.008C3641.07,403.716 3641.62,402.865 3642.1,402.11L3644.16,402.11L3644.16,409.629Z" style="fill-rule:nonzero;"/>
                    </g>
                    <g transform="matrix(1,0,0,1,1984.38,0)">
                        <path d="M3642.4,419.856C3643.73,423.511 3647.24,426.125 3651.35,426.125C3656.6,426.125 3660.86,421.862 3660.86,416.612C3660.86,414.358 3660.07,412.286 3658.76,410.656C3659.97,410.652 3661.12,410.434 3662.19,410.04C3663.36,411.957 3664.03,414.207 3664.03,416.612C3664.03,423.612 3658.35,429.296 3651.35,429.296C3645.43,429.296 3640.46,425.241 3639.06,419.764C3639.72,419.87 3640.39,419.924 3641.08,419.924C3641.52,419.924 3641.97,419.901 3642.4,419.856Z" style="fill:rgb(5,4,0);"/>
                    </g>
                </g>
            </g>
        </g>
    </g>
</svg>
