<?xml version="1.0" encoding="UTF-8" standalone="no"?>
<!DOCTYPE svg PUBLIC "-//W3C//DTD SVG 1.1//EN" "http://www.w3.org/Graphics/SVG/1.1/DTD/svg11.dtd">
<svg width="100%" height="100%" viewBox="0 0 1000 1000" version="1.1" xmlns="http://www.w3.org/2000/svg" xmlnsXlink="http://www.w3.org/1999/xlink" xmlSpace="preserve" xmlnsSerif="http://www.serif.com/" style="fill-rule:evenodd;clip-rule:evenodd;stroke-linejoin:round;stroke-miterlimit:2;">
    <g transform="matrix(1,0,0,1,-9454,0)">
        <g id="random" transform="matrix(1,0,0,1,-0.593977,0)">
            <rect x="9454.59" y="0" width="1000" height="1000" style="fill:none;"/>
            <g transform="matrix(7.36234,0,0,7.36234,-26008.9,-3282.5)">
                <g>
                    <g transform="matrix(1,0,0,1,2085.14,-9883.26)">
                        <path d="M2826.42,10365.4L2742.45,10365.4L2742.45,10449.4L2826.42,10449.4L2826.42,10365.4ZM2821.51,10370.3L2821.51,10444.5C2821.51,10444.5 2747.35,10444.5 2747.35,10444.5C2747.35,10444.5 2747.35,10370.3 2747.35,10370.3L2821.51,10370.3Z"/>
                    </g>
                    <g transform="matrix(1.7441,0,0,1.7441,34.1706,-17607.6)">
                        <circle cx="2760.54" cy="10384" r="6.042"/>
                    </g>
                    <g transform="matrix(1.7441,0,0,1.7441,54.9152,-17586.5)">
                        <circle cx="2760.54" cy="10384" r="6.042"/>
                    </g>
                    <g transform="matrix(1.7441,0,0,1.7441,75.9924,-17561.6)">
                        <circle cx="2760.54" cy="10384" r="6.042"/>
                    </g>
                </g>
                <g transform="matrix(1,0,-0.358472,0.249386,203.275,341.04)">
                    <g transform="matrix(1,0,0,1,2085.14,-9883.26)">
                        <path d="M2826.42,10365.4L2742.45,10365.4L2742.45,10449.4L2826.42,10449.4L2826.42,10365.4ZM2822.24,10375L2822.24,10439.8C2822.24,10439.8 2746.62,10439.8 2746.62,10439.8C2746.62,10439.8 2746.62,10375 2746.62,10375C2754.52,10375 2822.24,10375 2822.24,10375L2822.24,10375Z"/>
                    </g>
                    <g transform="matrix(1.7441,0,0,1.7441,34.1706,-17606.5)">
                        <circle cx="2760.54" cy="10384" r="6.042"/>
                    </g>
                    <g transform="matrix(1.7441,0,0,1.7441,34.1706,-17565.3)">
                        <circle cx="2760.54" cy="10384" r="6.042"/>
                    </g>
                    <g transform="matrix(1.7441,0,0,1.7441,55.9014,-17586)">
                        <circle cx="2760.54" cy="10384" r="6.042"/>
                    </g>
                    <g transform="matrix(1.7441,0,0,1.7441,76.9786,-17606.5)">
                        <circle cx="2760.54" cy="10384" r="6.042"/>
                    </g>
                    <g transform="matrix(1.7441,0,0,1.7441,76.9786,-17565.3)">
                        <circle cx="2760.54" cy="10384" r="6.042"/>
                    </g>
                </g>
                <g transform="matrix(0.367017,-0.251248,0,1,3139.36,1213.08)">
                    <g transform="matrix(1,0,0,1,2085.14,-9883.26)">
                        <path d="M2826.42,10365.4L2742.45,10365.4L2742.45,10449.4L2826.42,10449.4L2826.42,10365.4ZM2818.54,10368.9L2818.54,10445.9C2818.54,10445.9 2750.32,10445.9 2750.32,10445.9C2750.32,10445.9 2750.32,10379.9 2750.32,10368.9L2818.54,10368.9Z"/>
                    </g>
                    <g transform="matrix(1.7441,0,0,1.7441,55.9014,-17586)">
                        <circle cx="2760.54" cy="10384" r="6.042"/>
                    </g>
                </g>
            </g>
        </g>
    </g>
</svg>
